<svg width="238" height="56" viewBox="0 0 238 56" fill="none" xmlns="http://www.w3.org/2000/svg">
<rect width="238" height="56" rx="16" fill="#1A8EFF" fill-opacity="0.1"/>
<path d="M57.01 33.105C56.76 33.105 56.565 33.035 56.425 32.895C56.295 32.755 56.23 32.56 56.23 32.31V23.22C56.23 22.96 56.3 22.765 56.44 22.635C56.58 22.495 56.775 22.425 57.025 22.425H60.61C61.75 22.425 62.63 22.71 63.25 23.28C63.87 23.84 64.18 24.63 64.18 25.65C64.18 26.68 63.87 27.48 63.25 28.05C62.63 28.61 61.75 28.89 60.61 28.89H57.79V32.31C57.79 32.56 57.725 32.755 57.595 32.895C57.465 33.035 57.27 33.105 57.01 33.105ZM57.79 27.645H60.385C61.135 27.645 61.7 27.48 62.08 27.15C62.47 26.81 62.665 26.31 62.665 25.65C62.665 25 62.47 24.51 62.08 24.18C61.7 23.84 61.135 23.67 60.385 23.67H57.79V27.645ZM66.3075 33.105C66.0575 33.105 65.8675 33.04 65.7375 32.91C65.6075 32.77 65.5425 32.58 65.5425 32.34V26.34C65.5425 26.09 65.6075 25.9 65.7375 25.77C65.8675 25.64 66.0475 25.575 66.2775 25.575C66.5175 25.575 66.6975 25.64 66.8175 25.77C66.9475 25.9 67.0125 26.09 67.0125 26.34V27.435H66.8625C67.0225 26.835 67.3175 26.38 67.7475 26.07C68.1775 25.76 68.7275 25.58 69.3975 25.53C69.5775 25.52 69.7175 25.565 69.8175 25.665C69.9275 25.765 69.9875 25.92 69.9975 26.13C70.0175 26.34 69.9725 26.51 69.8625 26.64C69.7525 26.76 69.5825 26.83 69.3525 26.85L69.0675 26.88C68.4175 26.94 67.9225 27.145 67.5825 27.495C67.2425 27.845 67.0725 28.325 67.0725 28.935V32.34C67.0725 32.58 67.0075 32.77 66.8775 32.91C66.7575 33.04 66.5675 33.105 66.3075 33.105ZM74.2157 33.135C73.4757 33.135 72.8357 32.98 72.2957 32.67C71.7657 32.36 71.3507 31.92 71.0507 31.35C70.7507 30.78 70.6007 30.11 70.6007 29.34C70.6007 28.75 70.6857 28.225 70.8557 27.765C71.0257 27.305 71.2657 26.91 71.5757 26.58C71.8957 26.24 72.2757 25.985 72.7157 25.815C73.1657 25.635 73.6657 25.545 74.2157 25.545C74.9457 25.545 75.5757 25.7 76.1057 26.01C76.6457 26.32 77.0657 26.76 77.3657 27.33C77.6657 27.89 77.8157 28.56 77.8157 29.34C77.8157 29.92 77.7307 30.445 77.5607 30.915C77.3907 31.385 77.1457 31.785 76.8257 32.115C76.5157 32.445 76.1357 32.7 75.6857 32.88C75.2457 33.05 74.7557 33.135 74.2157 33.135ZM74.2157 31.965C74.6257 31.965 74.9857 31.865 75.2957 31.665C75.6057 31.465 75.8457 31.17 76.0157 30.78C76.1957 30.39 76.2857 29.91 76.2857 29.34C76.2857 28.48 76.0957 27.83 75.7157 27.39C75.3357 26.95 74.8357 26.73 74.2157 26.73C73.7957 26.73 73.4307 26.83 73.1207 27.03C72.8107 27.22 72.5657 27.51 72.3857 27.9C72.2157 28.29 72.1307 28.77 72.1307 29.34C72.1307 30.19 72.3207 30.84 72.7007 31.29C73.0807 31.74 73.5857 31.965 74.2157 31.965ZM78.3471 35.85C78.1671 35.86 78.0221 35.83 77.9121 35.76C77.7921 35.69 77.7121 35.6 77.6721 35.49C77.6221 35.38 77.6071 35.265 77.6271 35.145C77.6371 35.035 77.6871 34.935 77.7771 34.845C77.8571 34.765 77.9671 34.72 78.1071 34.71C78.6071 34.68 78.9721 34.545 79.2021 34.305C79.4421 34.065 79.5621 33.685 79.5621 33.165V26.34C79.5621 26.09 79.6271 25.9 79.7571 25.77C79.8971 25.64 80.0871 25.575 80.3271 25.575C80.5771 25.575 80.7621 25.64 80.8821 25.77C81.0121 25.9 81.0771 26.09 81.0771 26.34V33.045C81.0771 33.665 80.9721 34.175 80.7621 34.575C80.5621 34.985 80.2621 35.29 79.8621 35.49C79.4621 35.69 78.9571 35.81 78.3471 35.85ZM80.3271 24.045C80.0271 24.045 79.7921 23.97 79.6221 23.82C79.4621 23.67 79.3821 23.46 79.3821 23.19C79.3821 22.91 79.4621 22.7 79.6221 22.56C79.7921 22.41 80.0271 22.335 80.3271 22.335C80.6271 22.335 80.8571 22.41 81.0171 22.56C81.1771 22.7 81.2571 22.91 81.2571 23.19C81.2571 23.46 81.1771 23.67 81.0171 23.82C80.8571 23.97 80.6271 24.045 80.3271 24.045ZM86.6436 33.135C85.8436 33.135 85.1536 32.985 84.5736 32.685C84.0036 32.375 83.5586 31.94 83.2386 31.38C82.9286 30.81 82.7736 30.135 82.7736 29.355C82.7736 28.595 82.9286 27.93 83.2386 27.36C83.5486 26.79 83.9736 26.345 84.5136 26.025C85.0536 25.705 85.6686 25.545 86.3586 25.545C86.8686 25.545 87.3236 25.63 87.7236 25.8C88.1236 25.96 88.4636 26.2 88.7436 26.52C89.0336 26.83 89.2486 27.21 89.3886 27.66C89.5386 28.11 89.6136 28.615 89.6136 29.175C89.6136 29.345 89.5636 29.475 89.4636 29.565C89.3636 29.645 89.2136 29.685 89.0136 29.685H83.9736V28.755H88.5936L88.3386 28.965C88.3386 28.465 88.2636 28.04 88.1136 27.69C87.9736 27.34 87.7586 27.075 87.4686 26.895C87.1886 26.705 86.8386 26.61 86.4186 26.61C85.9486 26.61 85.5486 26.72 85.2186 26.94C84.8986 27.16 84.6536 27.465 84.4836 27.855C84.3136 28.245 84.2286 28.7 84.2286 29.22V29.31C84.2286 30.19 84.4336 30.855 84.8436 31.305C85.2636 31.745 85.8686 31.965 86.6586 31.965C86.9586 31.965 87.2736 31.925 87.6036 31.845C87.9436 31.765 88.2636 31.63 88.5636 31.44C88.7336 31.34 88.8836 31.295 89.0136 31.305C89.1536 31.315 89.2636 31.36 89.3436 31.44C89.4336 31.52 89.4886 31.62 89.5086 31.74C89.5286 31.86 89.5086 31.985 89.4486 32.115C89.3886 32.235 89.2836 32.345 89.1336 32.445C88.7936 32.675 88.3986 32.85 87.9486 32.97C87.4986 33.08 87.0636 33.135 86.6436 33.135ZM94.4902 33.135C93.7402 33.135 93.0902 32.98 92.5402 32.67C92.0002 32.35 91.5802 31.905 91.2802 31.335C90.9802 30.755 90.8302 30.075 90.8302 29.295C90.8302 28.715 90.9152 28.195 91.0852 27.735C91.2552 27.265 91.4952 26.87 91.8052 26.55C92.1252 26.23 92.5102 25.985 92.9602 25.815C93.4202 25.635 93.9302 25.545 94.4902 25.545C94.8402 25.545 95.2052 25.6 95.5852 25.71C95.9752 25.81 96.3352 25.98 96.6652 26.22C96.7952 26.3 96.8752 26.4 96.9052 26.52C96.9452 26.63 96.9502 26.745 96.9202 26.865C96.9002 26.985 96.8452 27.09 96.7552 27.18C96.6752 27.26 96.5752 27.31 96.4552 27.33C96.3352 27.34 96.2052 27.305 96.0652 27.225C95.8252 27.055 95.5802 26.935 95.3302 26.865C95.0802 26.785 94.8402 26.745 94.6102 26.745C94.2502 26.745 93.9302 26.805 93.6502 26.925C93.3802 27.035 93.1502 27.2 92.9602 27.42C92.7702 27.63 92.6252 27.895 92.5252 28.215C92.4352 28.535 92.3902 28.9 92.3902 29.31C92.3902 30.13 92.5802 30.775 92.9602 31.245C93.3502 31.705 93.9002 31.935 94.6102 31.935C94.8402 31.935 95.0802 31.9 95.3302 31.83C95.5802 31.76 95.8252 31.64 96.0652 31.47C96.2052 31.39 96.3352 31.36 96.4552 31.38C96.5752 31.4 96.6702 31.455 96.7402 31.545C96.8202 31.625 96.8702 31.725 96.8902 31.845C96.9202 31.955 96.9152 32.07 96.8752 32.19C96.8352 32.31 96.7502 32.41 96.6202 32.49C96.3002 32.72 95.9502 32.885 95.5702 32.985C95.2002 33.085 94.8402 33.135 94.4902 33.135ZM101.402 33.135C100.802 33.135 100.297 33.03 99.8868 32.82C99.4768 32.61 99.1718 32.3 98.9718 31.89C98.7718 31.48 98.6718 30.98 98.6718 30.39V26.85H97.7718C97.5718 26.85 97.4168 26.8 97.3068 26.7C97.1968 26.59 97.1418 26.445 97.1418 26.265C97.1418 26.075 97.1968 25.93 97.3068 25.83C97.4168 25.73 97.5718 25.68 97.7718 25.68H98.6718V24.135C98.6718 23.885 98.7368 23.695 98.8668 23.565C99.0068 23.435 99.1968 23.37 99.4368 23.37C99.6768 23.37 99.8618 23.435 99.9918 23.565C100.122 23.695 100.187 23.885 100.187 24.135V25.68H101.942C102.142 25.68 102.297 25.73 102.407 25.83C102.517 25.93 102.572 26.075 102.572 26.265C102.572 26.445 102.517 26.59 102.407 26.7C102.297 26.8 102.142 26.85 101.942 26.85H100.187V30.27C100.187 30.8 100.297 31.2 100.517 31.47C100.747 31.74 101.117 31.875 101.627 31.875C101.807 31.875 101.962 31.86 102.092 31.83C102.232 31.79 102.347 31.765 102.437 31.755C102.547 31.755 102.637 31.795 102.707 31.875C102.777 31.945 102.812 32.085 102.812 32.295C102.812 32.445 102.782 32.585 102.722 32.715C102.672 32.845 102.577 32.93 102.437 32.97C102.317 33.01 102.152 33.045 101.942 33.075C101.742 33.115 101.562 33.135 101.402 33.135ZM106.325 33.135C105.885 33.135 105.43 33.085 104.96 32.985C104.5 32.885 104.075 32.715 103.685 32.475C103.555 32.385 103.465 32.285 103.415 32.175C103.365 32.065 103.345 31.955 103.355 31.845C103.375 31.725 103.42 31.625 103.49 31.545C103.57 31.455 103.665 31.4 103.775 31.38C103.895 31.36 104.02 31.385 104.15 31.455C104.54 31.675 104.915 31.83 105.275 31.92C105.635 32 105.99 32.04 106.34 32.04C106.87 32.04 107.27 31.945 107.54 31.755C107.81 31.565 107.945 31.31 107.945 30.99C107.945 30.73 107.855 30.53 107.675 30.39C107.495 30.24 107.225 30.125 106.865 30.045L105.44 29.76C104.82 29.63 104.35 29.4 104.03 29.07C103.71 28.74 103.55 28.32 103.55 27.81C103.55 27.35 103.675 26.95 103.925 26.61C104.175 26.27 104.525 26.01 104.975 25.83C105.425 25.64 105.945 25.545 106.535 25.545C106.975 25.545 107.39 25.6 107.78 25.71C108.17 25.82 108.53 25.985 108.86 26.205C108.99 26.275 109.075 26.37 109.115 26.49C109.155 26.6 109.16 26.71 109.13 26.82C109.11 26.93 109.06 27.03 108.98 27.12C108.9 27.2 108.8 27.25 108.68 27.27C108.57 27.28 108.445 27.25 108.305 27.18C108.005 26.99 107.705 26.855 107.405 26.775C107.115 26.695 106.825 26.655 106.535 26.655C106.005 26.655 105.605 26.755 105.335 26.955C105.075 27.145 104.945 27.405 104.945 27.735C104.945 27.985 105.025 28.19 105.185 28.35C105.345 28.51 105.595 28.625 105.935 28.695L107.36 28.98C108.01 29.11 108.5 29.33 108.83 29.64C109.17 29.95 109.34 30.37 109.34 30.9C109.34 31.59 109.065 32.135 108.515 32.535C107.965 32.935 107.235 33.135 106.325 33.135Z" fill="#2D99FF"/>
<path d="M29.1367 19.2002C30.4582 19.2002 31.5425 20.1943 31.708 21.4727H33.4482C35.2963 21.4727 36.7998 22.9763 36.7998 24.8252V27.877C36.7998 27.9341 36.7915 27.99 36.7773 28.0439C36.7252 29.9979 36.6568 32.8777 36.6416 33.1602C36.5967 33.9814 36.2788 34.8293 35.7842 35.4209C35.1045 36.2414 34.23 36.622 33.0645 36.6221C31.625 36.6309 29.9204 36.6309 28.1641 36.6309C26.4146 36.6309 24.6126 36.6309 22.9785 36.6221C21.7963 36.622 20.9482 36.2511 20.2598 35.4209C19.7651 34.8293 19.4473 33.9902 19.3848 33.1602C19.3694 32.8209 19.2751 30.0988 19.2217 28.043C19.2078 27.9893 19.2002 27.9336 19.2002 27.877V24.8252C19.2002 22.9763 20.7073 21.4728 22.5605 21.4727H24.293C24.4585 20.1943 25.5409 19.2003 26.8633 19.2002H29.1367ZM26.8633 20.5205C26.2708 20.5206 25.7758 20.9259 25.6279 21.4727H30.3711C30.2232 20.9259 29.7284 20.5205 29.1367 20.5205H26.8633Z" fill="white"/>
<path opacity="0.4" d="M19.2 27.1927C19.244 29.2511 19.3672 32.772 19.3848 33.1603C19.4474 33.9905 19.7652 34.8296 20.26 35.4212C20.9485 36.2515 21.7964 36.6222 22.9788 36.6222C24.6129 36.631 26.4142 36.631 28.1637 36.631C29.9201 36.631 31.6247 36.631 33.0642 36.6222C34.2299 36.6222 35.1041 36.2418 35.7838 35.4212C36.2786 34.8296 36.5965 33.9817 36.6414 33.1603C36.659 32.8336 36.747 29.0117 36.7999 27.1927H19.2Z" fill="#2D99FF"/>
<path d="M27.3398 30.9836V32.1229C27.3398 32.4874 27.6357 32.7832 28.0002 32.7832C28.3647 32.7832 28.6605 32.4874 28.6605 32.1229V30.9836C28.6605 30.6191 28.3647 30.3232 28.0002 30.3232C27.6357 30.3232 27.3398 30.6191 27.3398 30.9836Z" fill="#2D99FF"/>
<path d="M29.1367 19.2C30.4582 19.2 31.542 20.194 31.7075 21.4724H33.4482C35.2962 21.4724 36.8 22.9762 36.8 24.8251V27.8767C36.8 28.0986 36.6882 28.3055 36.5042 28.4278C34.6887 29.6296 32.5334 30.43 30.2724 30.7425C30.2416 30.7469 30.2117 30.7487 30.1817 30.7487C29.8833 30.7487 29.6165 30.5471 29.5417 30.2512C29.3638 29.5504 28.7273 29.06 27.9956 29.06C27.2543 29.06 26.6248 29.5398 26.4293 30.2547C26.3413 30.5743 26.034 30.7786 25.7012 30.7346C23.4552 30.4212 21.3087 29.6244 19.4968 28.4278C19.311 28.3063 19.2001 28.0986 19.2001 27.8767V24.8251C19.2001 22.9762 20.7074 21.4724 22.5607 21.4724H24.2925C24.458 20.194 25.541 19.2 26.8634 19.2H29.1367ZM29.1367 20.5207H26.8634C26.2709 20.5207 25.776 20.9257 25.6281 21.4724H30.371C30.2231 20.9257 29.7283 20.5207 29.1367 20.5207Z" fill="#2D99FF"/>
</svg>
