<svg width="40" height="40" viewBox="0 0 40 40" fill="none" xmlns="http://www.w3.org/2000/svg">
<rect width="40" height="40" rx="12" fill="#F5F7FA"/>
<path fill-rule="evenodd" clip-rule="evenodd" d="M15.6001 20C15.6001 19.8896 15.6896 19.8 15.8001 19.8C15.9106 19.8 16.0001 19.8896 16.0001 20C16.0001 20.1105 15.9106 20.2 15.8001 20.2C15.6896 20.2 15.6001 20.1105 15.6001 20ZM15.8001 17.8C14.5851 17.8 13.6001 18.785 13.6001 20C13.6001 21.2151 14.5851 22.2 15.8001 22.2C17.0151 22.2 18.0001 21.2151 18.0001 20C18.0001 18.785 17.0151 17.8 15.8001 17.8ZM24.0001 20C24.0001 19.8896 24.0896 19.8 24.2001 19.8C24.3106 19.8 24.4001 19.8896 24.4001 20C24.4001 20.1105 24.3106 20.2 24.2001 20.2C24.0896 20.2 24.0001 20.1105 24.0001 20ZM24.2001 17.8C22.9851 17.8 22.0001 18.785 22.0001 20C22.0001 21.2151 22.9851 22.2 24.2001 22.2C25.4151 22.2 26.4001 21.2151 26.4001 20C26.4001 18.785 25.4151 17.8 24.2001 17.8Z" fill="#1A1926"/>
</svg>
