<svg width="24" height="24" viewBox="0 0 24 24" fill="none" xmlns="http://www.w3.org/2000/svg">
<path fill-rule="evenodd" clip-rule="evenodd" d="M19.008 6.40706C19.3986 6.01653 19.3986 5.38337 19.008 4.99284C18.6175 4.60232 17.9844 4.60232 17.5938 4.99284L12.0005 10.5862L6.40712 4.99284C6.01659 4.60232 5.38343 4.60232 4.99291 4.99284C4.60238 5.38337 4.60238 6.01653 4.99291 6.40706L10.5863 12.0004L4.99291 17.5938C4.60238 17.9843 4.60238 18.6175 4.99291 19.008C5.38343 19.3985 6.01659 19.3985 6.40712 19.008L12.0005 13.4146L17.5938 19.008C17.9844 19.3985 18.6175 19.3985 19.008 19.008C19.3986 18.6175 19.3986 17.9843 19.008 17.5938L13.4147 12.0004L19.008 6.40706Z" fill="#1A1926"/>
</svg>
